<svg width="48" height="42" viewBox="0 0 48 42" fill="none" xmlns="http://www.w3.org/2000/svg">
<g filter="url(#filter0_dd_4098_19129)">
<rect x="4" width="40" height="34" rx="10" fill="#00730C" shape-rendering="crispEdges"/>
<path d="M25.1719 12.8984C25.4955 12.8984 25.7578 12.6361 25.7578 12.3125C25.7578 11.9889 25.4955 11.7266 25.1719 11.7266C24.8483 11.7266 24.5859 11.9889 24.5859 12.3125C24.5859 12.6361 24.8483 12.8984 25.1719 12.8984Z" fill="white"/>
<path d="M27.5156 12.8984C27.8392 12.8984 28.1016 12.6361 28.1016 12.3125C28.1016 11.9889 27.8392 11.7266 27.5156 11.7266C27.192 11.7266 26.9297 11.9889 26.9297 12.3125C26.9297 12.6361 27.192 12.8984 27.5156 12.8984Z" fill="white"/>
<path d="M29.8594 12.8984C30.183 12.8984 30.4453 12.6361 30.4453 12.3125C30.4453 11.9889 30.183 11.7266 29.8594 11.7266C29.5358 11.7266 29.2734 11.9889 29.2734 12.3125C29.2734 12.6361 29.5358 12.8984 29.8594 12.8984Z" fill="white"/>
<path d="M27.1724 25.7891C28.137 25.7891 28.9219 25.0005 28.9219 24.0312V21.6875C28.9219 21.4354 28.7607 21.2116 28.5216 21.1318L25.0143 19.9599C24.8426 19.9025 24.6542 19.9277 24.5036 20.0281L23.0121 21.0224C21.4114 20.2629 19.5195 18.3877 18.767 16.8155L19.761 15.3245C19.8613 15.1739 19.8865 14.9854 19.8292 14.8138L18.6573 11.3065C18.5774 11.0674 18.3536 10.9062 18.1016 10.9062H15.7578C14.7886 10.9062 14 11.6911 14 12.6557C14 15.8931 15.472 19.2157 18.0387 21.7716C20.6025 24.3248 23.9316 25.7891 27.1724 25.7891ZM15.7578 12.0781H17.6796L18.6268 14.9131L17.6141 16.4323C17.507 16.5928 17.4859 16.7957 17.5576 16.9749C17.9472 17.949 18.727 19.0446 19.7532 20.0598C20.7727 21.0684 21.8736 21.8396 22.8532 22.2315C23.0323 22.3031 23.2354 22.282 23.3959 22.175L24.915 21.1622L27.75 22.1095V24.0312C27.75 24.3598 27.4963 24.6172 27.1724 24.6172C21.0039 24.6172 15.1719 18.8041 15.1719 12.6557C15.1719 12.3318 15.4293 12.0781 15.7578 12.0781V12.0781Z" fill="white"/>
<path d="M24.9477 18.7132C25.1666 18.8039 25.4186 18.7537 25.5862 18.5862L27.7583 16.4141H29.8594C32.1425 16.4141 34 14.5741 34 12.3125C34 10.0509 32.1425 8.21094 29.8594 8.21094H25.1719C22.9103 8.21094 21.0703 10.0509 21.0703 12.3125C21.0703 14.3752 22.6009 16.0871 24.5859 16.3723V18.1719C24.5859 18.4089 24.7287 18.6225 24.9477 18.7132V18.7132ZM22.2422 12.3125C22.2422 10.6971 23.5564 9.38281 25.1719 9.38281H29.8594C31.4963 9.38281 32.8281 10.6971 32.8281 12.3125C32.8281 13.9279 31.4963 15.2422 29.8594 15.2422H27.5156C27.3602 15.2422 27.2112 15.3039 27.1013 15.4138L25.7578 16.7573V15.8281C25.7578 15.5045 25.4955 15.2422 25.1719 15.2422C23.5564 15.2422 22.2422 13.9279 22.2422 12.3125Z" fill="white"/>
</g>
<defs>
<filter id="filter0_dd_4098_19129" x="0" y="0" width="48" height="42" filterUnits="userSpaceOnUse" color-interpolation-filters="sRGB">
<feFlood flood-opacity="0" result="BackgroundImageFix"/>
<feColorMatrix in="SourceAlpha" type="matrix" values="0 0 0 0 0 0 0 0 0 0 0 0 0 0 0 0 0 0 127 0" result="hardAlpha"/>
<feOffset dy="4"/>
<feGaussianBlur stdDeviation="2"/>
<feComposite in2="hardAlpha" operator="out"/>
<feColorMatrix type="matrix" values="0 0 0 0 0 0 0 0 0 0 0 0 0 0 0 0 0 0 0.25 0"/>
<feBlend mode="normal" in2="BackgroundImageFix" result="effect1_dropShadow_4098_19129"/>
<feColorMatrix in="SourceAlpha" type="matrix" values="0 0 0 0 0 0 0 0 0 0 0 0 0 0 0 0 0 0 127 0" result="hardAlpha"/>
<feOffset dy="4"/>
<feGaussianBlur stdDeviation="2"/>
<feComposite in2="hardAlpha" operator="out"/>
<feColorMatrix type="matrix" values="0 0 0 0 0 0 0 0 0 0 0 0 0 0 0 0 0 0 0.25 0"/>
<feBlend mode="normal" in2="effect1_dropShadow_4098_19129" result="effect2_dropShadow_4098_19129"/>
<feBlend mode="normal" in="SourceGraphic" in2="effect2_dropShadow_4098_19129" result="shape"/>
</filter>
</defs>
</svg>
